PathFileType	4	(X/Y/Z)	Patient4_TMGait_0pt5_02_right_25.trc.trc
DataRate	CameraRate	NumFrames	NumMarkers	Units	OrigDataRate	OrigDataStartFrame	OrigNumFrames
76.923076923077	76.923076923077	4	33	mm	76.923076923077	106	       141
Frame#	Time	Sacral			L.Shoulder			Chest			R.Shoulder			Neck			R.ASIS			L.ASIS			R.Thigh.Superior			R.Thigh.Lateral			R.Thigh.Inferior			R.Patella			L.Thigh.Superior			L.Thigh.Lateral			L.Thigh.Inferior			L.Patella			L.Shank.Superior			L.Shank.Lateral			L.Shank.Inferior			R.Shank.Superior			R.Shank.Lateral			R.Shank.Inferior			R.Heel			R.Midfoot.Superior			R.Midfoot.Lateral			R.Toe			L.Heel			L.Midfoot.Lateral			L.Midfoot.Superior			L.Toe			L.Elbow			L.Wrist			R.Elbow			R.Wrist			
		X1	Y1	Z1	X2	Y2	Z2	X3	Y3	Z3	X4	Y4	Z4	X5	Y5	Z5	X6	Y6	Z6	X7	Y7	Z7	X8	Y8	Z8	X9	Y9	Z9	X10	Y10	Z10	X11	Y11	Z11	X12	Y12	Z12	X13	Y13	Z13	X14	Y14	Z14	X15	Y15	Z15	X16	Y16	Z16	X17	Y17	Z17	X18	Y18	Z18	X19	Y19	Z19	X20	Y20	Z20	X21	Y21	Z21	X22	Y22	Z22	X23	Y23	Z23	X24	Y24	Z24	X25	Y25	Z25	X26	Y26	Z26	X27	Y27	Z27	X28	Y28	Z28	X29	Y29	Z29	X30	Y30	Z30	X31	Y31	Z31	X32	Y32	Z32	X33	Y33	Z33	

106	33.955000000000	577.753773007428	1013.411750650072	421.626590053862	768.676965981003	1432.250816152470	230.003351942372	863.018981611575	1368.871821646610	398.697732975731	771.192555669322	1451.485608005093	565.274568006084	759.969069803633	1499.090039118966	378.654757588476	797.966561834323	950.062714385558	549.034640882925	798.229054134993	963.082796546252	274.906014948440	881.640442958595	780.465989945681	525.802908099253	839.528376106011	659.660782276781	598.592116577473	932.041818065925	620.972954355318	523.060972433100	956.009534879315	514.060569022600	547.314460980103	830.268474527505	747.364947732997	303.499025596969	731.789384729066	638.876940551140	246.441863021030	808.537277555569	555.449105991427	309.920850747873	803.003594290187	487.095128722217	321.378766538760	776.310318976542	417.272460058171	314.142317641792	684.941678618768	303.347357005889	264.758937628551	733.739322204251	193.328282296677	339.996553898336	895.177010258912	431.126642901388	550.714953829853	785.164058845126	363.289643851472	605.278319494574	799.433440851069	254.343575730985	556.371872666485	620.676274162948	147.039093814445	518.590343778165	795.226967163848	129.212034728892	568.060960655547	687.729017770975	106.053805844550	597.945845320426	882.172031480788	37.449565515281	605.565311511333	603.716151446993	38.766096576952	387.442990970901	677.420958520552	34.257610446281	306.074315732533	760.868151014805	95.499672309428	330.974500601549	889.256272138688	42.898214912444	303.405245387660	784.432899878488	1088.135191136671	88.272319952307	992.106922512485	929.123665260761	77.471382773492	699.926577951212	1118.953510905941	700.230312979560	756.569204171093	863.300535347218	715.241599091608	
107	33.968000000000	577.556104137938	1013.755152777055	421.173370362930	770.717227817058	1431.970676044555	230.039215665108	863.734120336873	1368.475884819382	399.417302000360	771.027765052370	1451.567026857499	565.298951704446	761.072576652678	1499.020125813271	378.583440344214	797.013922790177	950.067019738933	549.506112689038	798.615446531380	963.163354801406	275.239014800467	880.710359584407	781.096849883250	525.777532025211	839.367827367008	660.130951157976	598.692530903947	931.260113407254	621.674686348109	522.557801717285	956.795476604363	516.666414952267	546.802806924302	827.835479535961	746.446636298706	303.838934993107	727.974821766138	639.034806188912	246.382739494598	803.519207084424	554.764041444659	309.846692105541	797.170469469554	486.723703859570	321.282204937492	770.453397438994	417.189013869580	314.005159274369	678.773935463454	303.491465004469	264.704663167186	727.436211937166	193.359633044996	339.933493009655	899.940105934346	432.256924526442	550.836973717168	794.266708788489	358.930155296300	606.566134584374	813.962731269849	250.716552417031	557.651617601357	641.111898487490	133.748075843518	521.524313278429	816.571604643236	125.528901365506	569.520458730873	710.914009202208	96.606632917450	600.404424485037	908.725342015292	38.754266506919	606.361148380552	597.199886010215	38.819317529284	387.402410590935	670.897233320099	34.262299017234	306.072164169845	754.390928649519	95.491447473801	330.914332271451	882.747412190744	42.816199807298	303.389558914528	788.438993133742	1088.560289751689	87.561778829053	1000.240329166145	935.245816583521	77.314321054175	692.493790658629	1121.632470171125	701.392965401080	740.292743451637	864.514712695210	721.385808707409	
108	33.981000000000	577.451128010707	1014.009479747152	420.951174918559	772.647504046563	1431.571271719330	230.245896071282	864.491083631189	1367.989825426520	400.229259581410	771.029354383815	1451.562560186557	565.478287011872	762.206249068586	1498.841821674713	378.677911673077	796.214341659950	949.930090320612	550.074202330699	799.103573884158	963.197688194707	275.639638886620	879.541275376826	781.186595012084	525.871472928464	838.547490090817	660.159607143024	598.900846808532	929.740573468077	621.695734349311	522.180844861804	956.654713087951	518.783268770703	546.262730088739	825.446859832073	745.490909663037	304.264718473865	724.172499298294	639.162971237933	246.404194670910	798.504433304826	554.067897072219	309.848923175618	791.360278848817	486.345527084996	321.249673533447	764.593490421999	417.096452067744	313.942701275674	672.620659194800	303.631014417748	264.711220692830	721.136413905851	193.383102074711	339.925952347935	904.040223950544	433.155242160704	551.004664062985	803.290153020227	354.400436218672	608.066964771506	828.523437833177	247.283624626622	559.054251039161	662.421326523889	120.653030374072	524.727495578998	838.251575165962	122.445821172475	571.091417060062	734.884576616616	87.648516754897	603.044640798709	935.489105975238	41.095894353819	607.134737333169	590.694990659643	38.866925021121	387.369385172515	664.367225130092	34.271003099296	306.080422162861	747.906186234172	95.487746891992	330.872973987222	876.228439791959	42.748343865866	303.376759915503	792.243832260695	1088.822371380217	87.132771572423	1007.796858361176	940.997534793083	77.509692830707	685.174710176497	1124.397490398461	702.578002534348	724.868578799282	866.350431941554	726.850817469468	
109	33.994000000000	577.434646183620	1014.176315568935	420.949344507029	774.469692143867	1431.072889321045	230.635906035924	865.294841337081	1367.414653468558	401.141484008680	771.208058566666	1451.461971824450	565.828346085917	763.371831213296	1498.557147952874	378.957456596073	795.579650782664	949.654525997625	550.735212158331	799.675460576463	963.171055782686	276.108504658974	878.158690875835	780.725142417531	526.114016260532	837.055103906224	659.748271399288	599.246448909432	927.524005364844	621.046221595612	521.991314097031	955.615038590804	520.391241759479	545.726388958510	823.108335127250	744.501227425253	304.775741517492	720.395160821272	639.263744810982	246.500903077130	793.507723173095	553.363832287952	309.928393346032	785.594675949620	485.955874355712	321.274434013394	758.741820840587	416.997196761545	313.950392516315	666.484444694074	303.772321362855	264.772398696285	714.840681759955	193.400351378789	339.964178617440	907.453034902956	433.852109340392	551.225953557848	812.159373672819	349.815115631441	609.725656300038	842.981337860752	244.181780969978	560.511032924043	684.433712474176	108.043475806356	528.039399113400	860.067997833998	120.126113448893	572.685233636781	759.408253799717	79.395780679719	605.715968566614	962.165062887194	44.557528461000	607.790215382473	584.196880165998	38.916781013899	387.342270693974	657.830082053847	34.287091313474	306.096966269838	741.413629435336	95.486923700233	330.848009695758	869.696778058705	42.690358702717	303.367315598138	795.834719874172	1088.936488724797	86.992074037481	1014.753284427508	946.327448066831	78.044299702052	678.050638167820	1127.202727931940	703.761031981114	710.361228158930	868.633818084323	731.647472818174	
